<?xml version="1.0" encoding="utf-8"?>
<!-- Generator: Adobe Illustrator 22.0.1, SVG Export Plug-In . SVG Version: 6.00 Build 0)  -->
<svg version="1.1" id="Layer_1" xmlns="http://www.w3.org/2000/svg" xmlns:xlink="http://www.w3.org/1999/xlink" x="0px" y="0px"
	 viewBox="0 0 315.6 36.6" style="enable-background:new 0 0 315.6 36.6;" xml:space="preserve">
<style type="text/css">
	.st0{enable-background:new    ;}
	.st1{fill:#FFFFFF;}
</style>
<g class="st0">
	<path class="st1" d="M2.7,20.1c0-4.9,0.1-14.8,7.5-14.8c3,0,4.8,1.6,6,4.3V10c0,0.3,0,0.6-0.3,0.7l-3.3,1.6
		c-0.6-1.9-1.5-2.7-2.4-2.7C8,9.6,7,14.4,7,19.1c0,4.8,1,9.5,3,9.5c3,0,3.1-2.2,3.1-4.8c0-0.5-0.1-1.4-0.5-1.4h-2.2
		c-0.2,0-0.5-0.5-0.5-0.7v-2.8c0-0.2,0.2-0.6,0.5-0.6c0.5,0,3.5-0.1,4.1-0.1h0.4c0.7,0,1.3,0,1.5,0.8c0.3,1.5,0.3,3,0.3,4.5
		c0,2.2-0.2,3.6-1,5.7c-0.9,2.5-3.6,3.3-5.9,3.3c-6.5,0-7.2-7.3-7.2-12.2L2.7,20.1L2.7,20.1z"/>
	<path class="st1" d="M19.7,6.2c0-0.5,0.1-1,0.6-1.2c1-0.1,1.9-0.1,2.8-0.1H27c3.2,0.3,3.9,3,4.2,5.7c0,4.7-0.1,6.3-0.2,6.7
		c-0.5,2.3-2,2.5-2.6,3.2c0,0,0,0.1,0,0.2c1.1,2.3,3.1,6.9,3.1,10.6c0,0.7-2.4,0.8-2.9,0.9c-0.7,0-0.7-1-0.9-1.5
		c0-1.6-1.8-8.9-3.6-8.9c-0.3,0-0.8,0-0.9,0.4v4.5c0,1.6,0,3.2,0,4.8c0,0.5,0,0.9-0.6,0.9h-2.9c-0.7,0-0.7-1.1-0.7-1.6L19.7,6.2z
		 M23.8,17.5c0,0.5,0.5,0.7,1,0.7c1.1,0,1.8-0.2,2.1-1.3c0.2-1.7,0.2-2.8,0.2-4.4v-2c-0.2-0.9-0.8-1.3-1.7-1.3s-1.4,0.3-1.5,1.2
		L23.8,17.5z"/>
	<path class="st1" d="M35.2,5.4h3.3c0.7,0,4,0,4.7,0.1c0.3,0.1,0.4,0.2,0.5,0.5c0,0.9,0,1.8,0,2.9c0,0.4-0.1,0.8-0.8,0.8h-4.4
		l-0.4,0.4l0.2,6.8l3.4,0.1c0.5,0,0.6,0.9,0.6,1.7V19l-0.1,1c0,0.3-0.1,0.9-0.6,0.9h-3.1c0,0-0.1,0.1-0.2,0.1l-0.1,0.1l0.2,6.3
		c0.1,0.5,0.3,0.8,0.8,0.8h4.4c0.7,0,0.8,0.5,0.8,1.1l-0.2,2.3c0,0.3-0.3,0.6-0.6,0.7l-8.7,0.3c-0.5,0-0.9-0.6-0.9-10.3
		c0-2.6,0-5.2,0-8s0-5.5,0.1-8.3C34.4,5.5,34.8,5.4,35.2,5.4z"/>
	<path class="st1" d="M47.5,5.4h3.3c0.7,0,4,0,4.7,0.1C55.8,5.6,55.9,5.7,56,6c0,0.9,0,1.8,0,2.9c0,0.4-0.1,0.8-0.8,0.8h-4.4
		l-0.4,0.4l0.2,6.8L54,17c0.5,0,0.6,0.9,0.6,1.7V19l-0.1,1c0,0.3-0.1,0.9-0.6,0.9h-3.1c0,0-0.1,0.1-0.2,0.1l-0.1,0.1l0.2,6.3
		c0.1,0.5,0.3,0.8,0.8,0.8h4.4c0.7,0,0.8,0.5,0.8,1.1l-0.2,2.3c0,0.3-0.3,0.6-0.6,0.7l-8.7,0.3c-0.5,0-0.9-0.6-0.9-10.3
		c0-2.6,0-5.2,0-8s0-5.5,0.1-8.3C46.7,5.5,47.1,5.4,47.5,5.4z"/>
	<path class="st1" d="M63,13c-0.1,0-0.1,0.8-0.1,2.2c0,3.5,0.2,10.6,0.2,17.1c0,0.9-0.7,1-1.4,1c-0.2,0-0.5,0-0.7,0s-0.5,0-0.8,0
		c-0.6,0-1.2-0.1-1.3-0.6V20.9c0-3.4-0.1-6.8-0.1-10.2c0-0.6,0-3.4,0-4c0-0.3,0.2-0.6,0.7-0.6h4.8c0.3,0,0.7,0.1,0.7,0.5l5.7,18.9
		L69.8,6.7c0.1-0.3,0.4-0.5,0.7-0.5h2.9c0.2,0,0.5,0.1,0.6,0.3v0.2c0,1.4,0.2,5.7,0.2,8.5c0,1.3,0.2,8.4,0.2,13.2
		c0,2.6-0.1,4.6-0.2,4.6H70c-0.4,0-0.7-0.3-0.8-0.6L63,13z"/>
</g>
<g class="st0">
	<path class="st1" d="M80.1,29.1c1.1,0,2,0.9,2,2c0,0.3-0.2,2.8-1.6,5.1l-0.7-0.1l0.4-3c0,0.1-0.1,0.1-0.3,0.1c-0.6,0-2-0.5-2-2
		C78.1,30,78.9,29.1,80.1,29.1z"/>
</g>
<g class="st0">
	<path class="st1" d="M82.5,20.1c0-4.9,0.1-14.8,7.5-14.8c3,0,4.8,1.6,6,4.3V10c0,0.3,0,0.6-0.3,0.7l-3.3,1.6
		c-0.6-1.9-1.5-2.7-2.4-2.7c-2.2,0-3.2,4.8-3.2,9.5c0,4.8,1,9.5,3,9.5c3,0,3.1-2.2,3.1-4.8c0-0.5-0.1-1.4-0.5-1.4h-2.2
		c-0.2,0-0.5-0.5-0.5-0.7v-2.8c0-0.2,0.2-0.6,0.5-0.6c0.5,0,3.5-0.1,4.1-0.1h0.4c0.7,0,1.3,0,1.5,0.8c0.3,1.5,0.3,3,0.3,4.5
		c0,2.2-0.2,3.6-1,5.7c-0.9,2.5-3.6,3.3-5.9,3.3c-6.5,0-7.2-7.3-7.2-12.2L82.5,20.1L82.5,20.1z"/>
	<path class="st1" d="M99.5,6.2c0-0.5,0.1-1,0.6-1.2c1-0.1,1.9-0.1,2.8-0.1h3.9c3.2,0.3,3.9,3,4.2,5.7c0,4.7-0.1,6.3-0.2,6.7
		c-0.5,2.3-2,2.5-2.6,3.2c0,0,0,0.1,0,0.2c1.1,2.3,3.1,6.9,3.1,10.6c0,0.7-2.4,0.8-2.9,0.9c-0.7,0-0.7-1-0.9-1.5
		c0-1.6-1.8-8.9-3.6-8.9c-0.3,0-0.8,0-0.9,0.4v4.5c0,1.6,0,3.2,0,4.8c0,0.5,0,0.9-0.6,0.9h-2.9c-0.7,0-0.7-1.1-0.7-1.6L99.5,6.2z
		 M103.6,17.5c0,0.5,0.5,0.7,1,0.7c1.1,0,1.8-0.2,2.1-1.3c0.2-1.7,0.2-2.8,0.2-4.4v-2c-0.2-0.9-0.8-1.3-1.7-1.3
		c-0.9,0-1.4,0.3-1.5,1.2L103.6,17.5z"/>
	<path class="st1" d="M115,5.4h3.3c0.7,0,4,0,4.7,0.1c0.3,0.1,0.4,0.2,0.5,0.5c0,0.9,0,1.8,0,2.9c0,0.4-0.1,0.8-0.8,0.8h-4.4
		l-0.4,0.4l0.2,6.8l3.4,0.1c0.5,0,0.6,0.9,0.6,1.7V19l-0.1,1c0,0.3-0.1,0.9-0.6,0.9h-3.1c0,0-0.1,0.1-0.2,0.1l-0.1,0.1l0.2,6.3
		c0.1,0.5,0.3,0.8,0.8,0.8h4.4c0.7,0,0.8,0.5,0.8,1.1l-0.2,2.3c0,0.3-0.3,0.6-0.6,0.7l-8.7,0.3c-0.5,0-0.9-0.6-0.9-10.3
		c0-2.6,0-5.2,0-8s0-5.5,0.1-8.3C114.2,5.5,114.6,5.4,115,5.4z"/>
	<path class="st1" d="M127.3,5.4h3.3c0.7,0,4,0,4.7,0.1c0.3,0.1,0.4,0.2,0.5,0.5c0,0.9,0,1.8,0,2.9c0,0.4-0.1,0.8-0.8,0.8h-4.4
		l-0.4,0.4l0.2,6.8l3.4,0.1c0.5,0,0.6,0.9,0.6,1.7V19l-0.1,1c0,0.3-0.1,0.9-0.6,0.9h-3.1c0,0-0.1,0.1-0.2,0.1l-0.1,0.1l0.2,6.3
		c0.1,0.5,0.3,0.8,0.8,0.8h4.4c0.7,0,0.8,0.5,0.8,1.1l-0.2,2.3c0,0.3-0.3,0.6-0.6,0.7l-8.7,0.3c-0.5,0-0.9-0.6-0.9-10.3
		c0-2.6,0-5.2,0-8s0-5.5,0.1-8.3C126.5,5.5,126.9,5.4,127.3,5.4z"/>
	<path class="st1" d="M142.8,13c-0.1,0-0.1,0.8-0.1,2.2c0,3.5,0.2,10.6,0.2,17.1c0,0.9-0.7,1-1.4,1c-0.2,0-0.5,0-0.7,0s-0.5,0-0.8,0
		c-0.6,0-1.2-0.1-1.3-0.6V20.9c0-3.4-0.1-6.8-0.1-10.2c0-0.6,0-3.4,0-4c0-0.3,0.2-0.6,0.7-0.6h4.8c0.3,0,0.7,0.1,0.7,0.5l5.7,18.9
		l-0.9-18.8c0.1-0.3,0.4-0.5,0.7-0.5h2.9c0.2,0,0.5,0.1,0.6,0.3v0.2c0,1.4,0.2,5.7,0.2,8.5c0,1.3,0.2,8.4,0.2,13.2
		c0,2.6-0.1,4.6-0.2,4.6h-4.2c-0.4,0-0.7-0.3-0.8-0.6L142.8,13z"/>
</g>
<g class="st0">
	<path class="st1" d="M171.3,7.8L171.3,7.8c0.1,0,0.1,0,0.2,0.1c0.1,0.1,0.2,0.2,0.2,0.3c0.1,0.1,0.2,0.2,0.3,0.3
		c0.1,0.1,0.1,0.2,0.2,0.3c0.1,0.4,0.2,0.8,0.3,1.2c0.1,0.4,0.1,0.8,0.1,1.2c0,0.3,0,0.6-0.1,0.8v0.6l0,0l0,0l-0.1,0.1h-0.1
		c0,0.1-0.1,0.2-0.1,0.4s-0.1,0.2-0.2,0.4c-0.1,0.3-0.1,0.5-0.2,0.8c-0.1,0.3-0.2,0.5-0.3,0.8l0,0c0,0.1-0.1,0.1-0.2,0.1l-0.2,0.4
		c0,0.1-0.1,0.1-0.2,0.1c-0.2,0.3-0.4,0.7-0.7,1c-0.3,0.4-0.6,0.6-0.8,0.8c-0.1,0.1-0.2,0.3-0.3,0.5c0.2,0.3,0.4,0.6,0.7,0.9
		c0.2,0.3,0.5,0.6,0.8,0.8c0.1,0.1,0.2,0.2,0.4,0.2c0.1,0,0.2,0.1,0.3,0.2c0.2,0.2,0.3,0.4,0.4,0.6s0.2,0.4,0.4,0.6l0.3,0.4l0.2-0.3
		l-0.1-0.1c0-0.1,0-0.2,0.1-0.2c0.2,0,0.4-0.1,0.5-0.2c0.2-0.1,0.3-0.2,0.5-0.3c0.2-0.1,0.3-0.2,0.5-0.3c0.2-0.1,0.3-0.2,0.5-0.2
		h0.1c0,0,0.1-0.1,0.2-0.1c0.1,0,0.2,0.1,0.3,0.2s0.2,0.3,0.3,0.5c0.1,0.1,0.2,0.2,0.3,0.3c0.1,0.1,0.3,0.3,0.4,0.4
		c0.1,0.1,0.3,0.2,0.4,0.4c0.1,0.1,0.2,0.2,0.2,0.3h0.1v0.1l0,0l0,0l0,0c0.1,0,0.2,0.1,0.2,0.2c0,0,0,0.1-0.1,0.1l-0.6,0.6
		c0,0-0.1,0.1-0.1,0.2c-0.1,0.1-0.1,0.2-0.2,0.3c-0.1,0.1-0.2,0.2-0.3,0.3s-0.2,0.1-0.2,0.1l0,0c-0.1,0.1-0.2,0.2-0.3,0.3
		c-0.2,0.2-0.3,0.3-0.4,0.4l0.7,0.7c0.2,0.2,0.4,0.4,0.6,0.5c0.2,0.2,0.4,0.4,0.5,0.6c0.1,0,0.1,0,0.2,0c0,0,0.1,0.1,0.1,0.2
		c0,0,0,0,0,0.1v0.1c0,0.1-0.1,0.1-0.1,0.2c-0.1,0.1-0.2,0.2-0.3,0.3c-0.1,0.1-0.2,0.2-0.4,0.3c-0.1,0.1-0.3,0.2-0.4,0.3
		c-0.2,0.2-0.3,0.4-0.5,0.6s-0.3,0.4-0.5,0.5l0.1,0.2l0,0l0,0c0,0.1-0.1,0.2-0.2,0.2l-0.3-0.1c-0.2,0.3-0.4,0.5-0.6,0.7
		s-0.5,0.4-0.7,0.6l-0.1,0.1c-0.2,0.1-0.4,0.2-0.6,0.4c-0.2,0.1-0.4,0.3-0.5,0.5l-0.1-0.1c0,0,0-0.1-0.1-0.1l-0.3-0.6l0,0l-0.4-0.6
		c-0.1,0-0.1-0.1-0.1-0.1s0,0.1-0.1,0.1l-0.4,0.1c-0.2,0.2-0.5,0.4-0.8,0.7c-0.3,0.2-0.6,0.5-0.9,0.7s-0.5,0.4-0.8,0.5
		c-0.2,0.1-0.4,0.2-0.5,0.2c0,0,0,0-0.1,0c0,0,0,0-0.1,0s-0.2,0.1-0.3,0.1s-0.2,0.1-0.3,0.1s-0.1,0-0.1,0l-0.5,0.2
		c-0.2,0.1-0.4,0.1-0.7,0.1s-0.5,0-0.8,0c-0.2,0-0.5,0-0.7,0s-0.5-0.1-0.7-0.2c-0.7-0.1-1.3-0.2-1.8-0.5c-0.5-0.2-0.9-0.6-1.2-0.9
		l0,0c0,0.1-0.1,0.1-0.2,0.1c0,0-0.1,0-0.2-0.1c-0.1,0-0.1-0.1-0.1-0.2v-0.1c0-0.1-0.1-0.2-0.2-0.3c-0.1-0.1-0.1-0.2-0.2-0.3
		s-0.1-0.2-0.2-0.3c0-0.1-0.1-0.1-0.1-0.2c0,0,0-0.1,0-0.2c-0.1-0.2-0.1-0.4-0.2-0.6l0,0l-0.1-0.1c0,0-0.1-0.1-0.1-0.2v-0.1v-0.1
		c0-0.1-0.1-0.2-0.2-0.3s-0.1-0.3-0.2-0.6l-0.1,0.1c-0.1,0-0.2-0.1-0.2-0.2c0-0.2,0-0.5,0.1-0.7s0.1-0.6,0.2-0.8
		c-0.1,0-0.2-0.1-0.2-0.2v-0.1v-0.1c-0.1,0-0.1-0.1-0.1-0.2s0.1-0.3,0.1-0.6s0.1-0.5,0.2-0.8s0.2-0.6,0.3-0.9s0.3-0.7,0.5-1v-0.1
		l0,0l0,0v-0.1c0,0,0,0-0.1-0.1v-0.1c0-0.1,0-0.2,0.1-0.3c0.1-0.1,0.1-0.2,0.2-0.3c0.1-0.1,0.2-0.2,0.3-0.3c0.1-0.1,0.2-0.2,0.2-0.2
		l0,0c0.1-0.1,0.1-0.2,0.2-0.3s0.2-0.2,0.2-0.3c0.1-0.1,0.1-0.2,0.1-0.3s0.1-0.2,0.2-0.2h0.1l0.7-0.6l0.1-0.1c0-0.1-0.1-0.1-0.2-0.3
		s-0.2-0.2-0.2-0.2l-0.1-0.1c0,0-0.1-0.1-0.2-0.2s-0.2-0.2-0.2-0.3s-0.1-0.2-0.2-0.3c-0.1-0.1-0.1-0.2-0.1-0.2s0,0,0-0.1
		c-0.1-0.2-0.3-0.5-0.4-0.8s-0.3-0.6-0.4-0.9c-0.1-0.2-0.2-0.5-0.3-0.7c0-0.3-0.1-0.6-0.3-0.9h-0.1c-0.1,0-0.2-0.1-0.2-0.2v-0.2
		c0-0.2,0.1-0.5,0.1-0.7c0.1-0.2,0.1-0.5,0.2-0.7c0.1-0.4,0.2-0.9,0.3-1.3s0.2-0.8,0.5-1.2c-0.1,0-0.2-0.1-0.2-0.2
		c0,0,0-0.1,0.1-0.2s0.2-0.1,0.3-0.2s0.2-0.1,0.3-0.2s0.2-0.2,0.3-0.3l0.6-0.6l0,0l0,0c0.1,0,0.3-0.1,0.6-0.2s0.5-0.3,0.8-0.4
		s0.6-0.3,0.8-0.5c0.3-0.2,0.5-0.3,0.6-0.5l0.1-0.1l-0.3,0.3c0.4-0.2,0.9-0.4,1.4-0.5c0.1,0,0.1,0,0.1,0.1c0.1-0.1,0.3-0.1,0.4-0.1
		s0.3-0.1,0.4-0.1h0.1h0.1c0.2,0,0.4-0.1,0.7-0.1s0.5,0,0.7,0c0.6,0,1.1,0.1,1.7,0.3c0.6,0.2,1,0.5,1.4,0.9l0.1,0.1L171.3,7.8z
		 M158.8,27.2c0,0.1,0,0.1,0,0.2s0,0.1,0,0.2v0.3c0-0.1,0.1-0.2,0.1-0.3c0-0.1,0.1-0.2,0.2-0.3v-0.5c-0.1,0.1-0.1,0.1-0.2,0.2
		C158.9,27,158.8,27.1,158.8,27.2L158.8,27.2z M158.8,26.7l0.3-0.3v-0.1c-0.1,0.1-0.1,0.1-0.2,0.2C158.9,26.5,158.8,26.6,158.8,26.7
		L158.8,26.7z M158.9,25.9c0-0.1,0.1-0.1,0.1-0.2s0.1-0.1,0.2-0.2v-0.3c-0.1,0.1-0.1,0.1-0.2,0.2s-0.1,0.1-0.1,0.2s0,0.1,0,0.1
		C158.9,25.8,158.9,25.8,158.9,25.9z M158.9,28.6l0.3-0.3c0-0.1,0-0.1,0-0.2s0-0.1,0-0.2c-0.1,0.1-0.1,0.2-0.2,0.3
		C159,28.4,158.9,28.5,158.9,28.6L158.9,28.6z M159.1,24.8L159.1,24.8c0.1-0.2,0.1-0.3,0.1-0.3s0-0.2,0-0.3L159.1,24.8z M159.1,29
		L159.1,29l0.1-0.1L159.1,29z M159.5,26.5v0.3l0.2-0.2l0,0L159.5,26.5L159.5,26.5z M159.6,12.7l0.1-0.2l-0.1-0.5l-0.1,0.1v0.2
		L159.6,12.7z M159.8,24.9v-0.1v-0.1l-0.2,0.2c0,0.1,0,0.1,0,0.3L159.8,24.9z M159.7,25.9C159.7,25.9,159.7,25.8,159.7,25.9
		c0-0.1,0-0.1,0-0.1v-0.1v-0.1l-0.1,0.2C159.6,25.7,159.6,25.8,159.7,25.9L159.7,25.9z M159.8,13.2V13c0,0.1-0.1,0.1-0.1,0.2
		s0,0.1-0.1,0.2L159.8,13.2z M159.9,14.3v0.1l0.1-0.1l-0.1-0.7c-0.1,0-0.1,0.1-0.2,0.1c0,0-0.1,0-0.1,0.1l0.1,0.5
		C159.8,14.3,159.8,14.3,159.9,14.3L159.9,14.3z M159.9,22.5v-0.1c0,0,0-0.1,0.1-0.1l-0.4,0.5L159.9,22.5z M159.9,27l-0.1,0.1
		l-0.1,0.1v0.1c0,0.1,0,0.2,0,0.3s0,0.2,0,0.3l0.3-0.3c0-0.1,0-0.2-0.1-0.3C159.9,27.2,159.9,27.1,159.9,27z M160.1,23.5
		c0-0.1,0.1-0.1,0.2-0.1l0,0l0,0c0-0.2,0.1-0.4,0.2-0.6l-0.5,0.5c-0.1,0.3-0.2,0.6-0.3,1l0.2-0.2c0-0.1,0.1-0.2,0.1-0.3
		S160,23.6,160.1,23.5z M159.7,10.6L159.7,10.6l0.1,0.3l0.3-0.3c0-0.1,0-0.1,0-0.2s0-0.1,0-0.2L159.7,10.6z M160,28.5L160,28.5
		L160,28.5c-0.1,0.1-0.2,0.2-0.3,0.3l0.1,0.2c0,0,0,0,0.1,0.1l0.1,0.1l0.4-0.3c0-0.1-0.1-0.2-0.1-0.3C160.1,28.6,160,28.6,160,28.5z
		 M159.7,30.1v0.1V30.1z M160.1,11.1c-0.1,0.1-0.2,0.2-0.2,0.3v0.1l0.2-0.2C160.1,11.3,160.1,11.2,160.1,11.1z M160.1,11.7
		c0,0-0.1,0-0.1,0.1c0,0-0.1,0-0.1,0.1l0.1,0.3l0.9-0.2L160.1,11.7z M160.1,21.5v0.1v0.1c0.1-0.1,0.2-0.2,0.3-0.4
		c0.1-0.1,0.2-0.2,0.3-0.4l0.2-0.5l-0.1,0.1c-0.1,0.1-0.2,0.3-0.3,0.5C160.3,21.2,160.2,21.3,160.1,21.5z M160.1,12.6l0.1,0.4
		l0.2-0.1c0-0.1,0-0.2,0-0.2c0-0.1,0-0.1,0-0.2L160.1,12.6z M160.1,29.7c0.1-0.1,0.2-0.2,0.3-0.4l0,0l0,0l-0.3,0.3V29.7z
		 M160.1,24.9c0,0.1,0,0.2,0,0.3s0,0.2,0,0.4c0,0,0.1-0.1,0.2-0.1c0-0.2-0.1-0.5-0.1-0.7L160.1,24.9z M160.3,25.9c0,0-0.1,0-0.1,0.1
		c0,0-0.1,0-0.1,0.1v0.1L160.3,25.9z M160.2,28.3L160.2,28.3L160.2,28.3C160.2,28.3,160.2,28.2,160.2,28.3L160.2,28.3z M160.4,13.2
		C160.4,13.3,160.3,13.3,160.4,13.2c-0.1,0.1-0.2,0.1-0.2,0.1l0.1,0.5l0.2-0.2L160.4,13.2z M160.2,26.9l0.1,0.5l0.6-0.4l-0.4-0.7
		l-0.3,0.3l0.3,0.1c0.1,0,0.1,0.1,0.1,0.2s-0.1,0.2-0.2,0.2L160.2,26.9z M160.2,30.3L160.2,30.3l0.1,0.1L160.2,30.3L160.2,30.3z
		 M160.4,9.9c0,0.1,0,0.1,0,0.2s0,0.1,0,0.2l0.2-0.2l0.1-0.5L160.4,9.9z M160.4,14.4L160.4,14.4l0.2-0.1v-0.1L160.4,14.4z
		 M161.3,20.8c-0.2,0.2-0.4,0.4-0.5,0.7c-0.1,0.2-0.3,0.5-0.4,0.7l0.4-0.3c0.1-0.2,0.2-0.4,0.2-0.5
		C161.1,21.1,161.2,20.9,161.3,20.8z M160.4,10.8v0.1c0,0,0,0.1,0,0.2l0.1-0.1c0-0.1,0-0.1,0-0.2s0-0.1,0-0.2L160.4,10.8z
		 M160.6,30.2C160.6,30.1,160.6,30.1,160.6,30.2c0.1-0.1,0.2-0.2,0.2-0.2l-0.2-0.3l-0.1,0.1c0,0,0,0.1-0.1,0.1L160.6,30.2
		C160.6,30.1,160.6,30.2,160.6,30.2z M160.5,11.5L160.5,11.5c0,0.1,0,0.2,0,0.2l0.1-0.1v-0.2L160.5,11.5z M160.5,14.8v0.1
		c0,0,0,0.1,0,0.2l0.3-0.2c0-0.1,0-0.1-0.1-0.2L160.5,14.8L160.5,14.8z M160.9,28.5l-0.4-0.4l0.2,0.6L160.9,28.5z M160.9,31.1
		c0-0.1,0.1-0.2,0.2-0.3c0.1-0.1,0.1-0.2,0.2-0.2l-0.2-0.3l-0.5,0.4C160.6,30.9,160.8,31,160.9,31.1z M160.6,12L160.6,12L160.6,12
		v0.6h0.1c0-0.1,0-0.2,0-0.3C160.6,12.2,160.6,12.1,160.6,12z M160.7,25c0-0.1,0-0.2-0.1-0.3c0-0.1,0-0.2,0-0.4l0,0
		c0,0.2,0,0.3,0,0.5s0,0.3,0,0.5C160.6,25.2,160.6,25.1,160.7,25z M160.7,17.3L160.7,17.3L160.7,17.3L160.7,17.3z M160.6,27.7
		l0.6,0.6l0.1-0.1c0,0,0.1,0,0.2-0.1l-0.4-0.8l-0.1,0.1L160.6,27.7z M160.7,15.5c0,0.1,0,0.2,0.1,0.3l0.3-0.2l-0.1-0.3L160.7,15.5z
		 M160.7,12.9C160.7,13,160.7,13,160.7,12.9l0.1,0.4l0,0L160.7,12.9z M160.8,16.1c0,0.1,0.1,0.2,0.1,0.3c0,0.1,0.1,0.2,0.1,0.3
		c0-0.1,0.1-0.1,0.1-0.2s0.1-0.1,0.2-0.2c0-0.1-0.1-0.2-0.1-0.2c0-0.1-0.1-0.2-0.1-0.2L160.8,16.1z M160.9,13.7L161,14l0,0
		L160.9,13.7L160.9,13.7z M160.9,11.1v0.1l0.1-0.1l0,0c0,0,0,0,0-0.1L160.9,11.1z M161,10.3c0,0.1,0,0.2,0,0.3c0,0.1,0,0.2,0,0.2
		l0.1-0.1L161,10.3L161,10.3z M161,11.7c0,0.2,0,0.5,0.1,0.7l0.2-0.1c0-0.1,0-0.2-0.1-0.3c0-0.1,0-0.2,0-0.3L161,11.7z M161.3,18.2
		L161.3,18.2c0-0.1-0.1-0.2-0.1-0.2c0-0.1-0.1-0.1-0.1-0.2H161L161.3,18.2z M161,29.3l0.1-0.1c0.1,0,0.2,0.1,0.2,0.2s0,0.1-0.1,0.2
		c0.1-0.1,0.3-0.2,0.4-0.3l-0.4-0.4c-0.1,0.1-0.1,0.1-0.2,0.2C161,29.2,161,29.2,161,29.3L161,29.3z M161.1,9.2L161,9.7l0,0
		c0-0.1,0-0.2,0-0.3C161.1,9.3,161.1,9.2,161.1,9.2L161.1,9.2z M161,12.7c0,0.1,0,0.2,0,0.2l0.2-0.2v-0.1L161,12.7z M175.2,24.1
		L175.2,24.1L175.2,24.1l0.3-0.3c0.2-0.2,0.4-0.4,0.6-0.7c0.2-0.2,0.4-0.4,0.6-0.6c-0.1,0-0.1-0.1-0.1-0.2l0,0
		c-0.2,0-0.3-0.1-0.5-0.2s-0.3-0.2-0.5-0.3c-0.1-0.1-0.3-0.3-0.4-0.4c-0.1-0.2-0.2-0.3-0.2-0.5v-0.1c0,0,0-0.1-0.1-0.1
		c0,0,0-0.1-0.1-0.1c-0.2,0.3-0.5,0.6-0.7,0.9c-0.3,0.3-0.5,0.6-0.8,0.8l-0.2,0.3c-0.1,0-0.1,0-0.1,0s-0.1,0-0.1-0.1l0,0l0,0
		l0.1,0.1c-0.2,0.2-0.4,0.4-0.5,0.6c-0.1-0.1-0.2-0.2-0.2-0.3s-0.2-0.2-0.2-0.3H172c-0.1,0-0.2-0.1-0.2-0.2s0-0.1,0-0.1v-0.1
		c0,0,0-0.1-0.1-0.1c0,0,0-0.1-0.1-0.1c-0.2-0.2-0.5-0.5-0.8-0.8c-0.3-0.4-0.5-0.8-0.8-1.1c-0.3-0.3-0.6-0.7-0.9-1
		c-0.3-0.3-0.6-0.7-0.9-1c0.1-0.1,0.2-0.2,0.3-0.3s0.1-0.2,0.2-0.3l0,0l0,0l0,0l0.4-0.4c0.1-0.2,0.3-0.4,0.5-0.7
		c0.2-0.2,0.4-0.4,0.5-0.5l0,0c0.3-0.5,0.6-1,0.8-1.4s0.5-0.9,0.7-1.3v-0.1V13l0.2-0.3c0-0.1,0-0.2,0-0.2v-0.2l0.1-0.1
		c-0.1,0-0.2-0.1-0.2-0.2c0-0.6,0-1.1-0.1-1.7c-0.1-0.5-0.2-1.1-0.3-1.6l0,0c-0.1-0.1-0.2-0.2-0.2-0.4C171,8.2,171,8,170.9,7.9
		c-0.1-0.1-0.1-0.3-0.2-0.4s-0.2-0.2-0.3-0.3l0,0c-0.1,0-0.1-0.1-0.1-0.2c-0.5-0.4-1.2-0.7-1.9-0.8c-0.1,0-0.3,0.1-0.4,0.1
		c-0.1,0-0.2,0-0.3,0s-0.2,0-0.3,0s-0.3,0-0.4,0.1c-0.1,0-0.3,0-0.4,0c-0.1,0-0.2,0-0.3,0c-0.1,0.1-0.3,0.2-0.5,0.2s-0.4,0-0.6,0.1
		l-0.4,0.1l0,0l0,0c-0.2,0.1-0.5,0.3-0.7,0.4s-0.6,0.3-0.9,0.5c-0.1,0.1-0.2,0.2-0.3,0.3s-0.2,0.3-0.3,0.4s-0.2,0.3-0.2,0.5
		c-0.1,0.2-0.1,0.3-0.2,0.5l0,0c0,0.1,0,0.2,0,0.3c0,0.1,0,0.2,0,0.3v0.1c0,0.2,0,0.3,0,0.5s0,0.3,0,0.5l0,0c0,0.3,0.1,0.7,0.1,1
		s0.1,0.6,0.1,0.9c0.1,0.2,0.1,0.3,0.2,0.5c0.1,0.1,0.1,0.3,0.1,0.5l0,0c0.1,0.2,0.2,0.4,0.3,0.5c0.1,0.2,0.2,0.4,0.3,0.6
		c0.1,0.1,0.2,0.2,0.3,0.4s0.3,0.3,0.5,0.5c0.1,0.2,0.3,0.4,0.4,0.5c0.1,0.2,0.2,0.3,0.2,0.4l-0.1,0.1c0,0.1,0.1,0.1,0.1,0.2
		s0.1,0.1,0.1,0.2l0.1,0.1c-0.1,0.1-0.1,0.1-0.2,0.2c-0.1,0.1-0.1,0.1-0.2,0.2l-0.1,0.1c0,0,0,0,0-0.1c0,0-0.1,0.1-0.3,0.3
		s-0.3,0.3-0.4,0.5s-0.3,0.4-0.5,0.6s-0.3,0.3-0.4,0.4l0,0l-0.1,0.1c-0.1,0.1-0.1,0.2-0.2,0.2c0,0.1-0.1,0.1-0.2,0.2
		c-0.1,0.1-0.1,0.1-0.1,0.1c-0.1,0.2-0.2,0.5-0.2,0.7c-0.1,0.3-0.2,0.5-0.4,0.7c-0.1,0-0.1,0.1-0.2,0.2c-0.1,0.1-0.1,0.2-0.2,0.4
		s-0.1,0.3-0.1,0.4S161,22.9,161,23c0,0.3,0.1,0.7,0.1,1.1s0,0.7,0.1,1.1c0.1,0,0.1,0.1,0.1,0.2s0,0.1-0.1,0.2l0,0
		c0,0.1,0,0.1,0,0.2s0,0.1,0,0.2c0,0,0,0,0,0.1l0,0l0.1,0.4l0,0h0.1c0.1,0,0.2,0.1,0.3,0.2s0.2,0.2,0.3,0.4c0.1,0.2,0.2,0.3,0.3,0.5
		s0.2,0.3,0.2,0.5c0.2,0.2,0.3,0.5,0.4,0.7c0.2,0.1,0.4,0.3,0.5,0.4s0.3,0.2,0.5,0.2c0.1,0,0.2,0,0.3,0.1c0.1,0,0.2,0,0.3,0.1
		c0.1,0,0.2-0.1,0.3-0.1c0.2,0,0.4,0,0.5,0.1c0.2,0,0.4,0.1,0.5,0.1c0.5,0,0.9,0,1.3-0.1c0.4-0.1,0.7-0.1,1.1-0.1
		c0.1,0,0.1,0,0.2,0.1s0.1,0.1,0.1,0.1c0.1-0.1,0.3-0.1,0.4-0.2c0.1-0.1,0.2-0.1,0.4-0.2c0.1-0.1,0.2-0.1,0.4-0.2
		c0.1-0.1,0.3-0.2,0.5-0.3c0.2-0.2,0.4-0.3,0.5-0.5s0.4-0.3,0.6-0.4h0.1l0.3-0.2l0.3-0.3c0,0,0,0,0-0.1s0-0.1,0.1-0.2V27l0.1-0.1
		l0.2-0.1c0.1,0.1,0.1,0.2,0.3,0.3c0.1,0.1,0.2,0.2,0.3,0.3c0.1,0.1,0.2,0.2,0.3,0.2c0.1,0.1,0.1,0.1,0.1,0.2v0.1l0.6,0.8
		c0,0.1,0.1,0.1,0.1,0.2s0.1,0.1,0.2,0.1c0-0.1,0.1-0.2,0.1-0.2c0.1-0.1,0.1-0.2,0.2-0.3c0.1-0.1,0.1-0.2,0.2-0.2
		c0-0.1,0.1-0.1,0.1-0.1l0.1-0.1h0.1h0.1l0.5-0.5l0.1-0.1h0.1h0.1c0.2-0.1,0.3-0.2,0.4-0.3c0.1-0.1,0.2-0.1,0.2-0.1l-0.4-0.4
		l-0.1,0.1c-0.1,0-0.2-0.1-0.3-0.2s-0.2-0.2-0.4-0.4c-0.1-0.1-0.2-0.3-0.3-0.4c-0.1-0.2-0.2-0.3-0.3-0.3l-0.5-0.5
		c0.1-0.1,0.2-0.1,0.3-0.2s0.2-0.2,0.2-0.3v0.1c0.1-0.1,0.1-0.2,0.2-0.3C175.1,24.2,175.1,24.1,175.2,24.1L175.2,24.1z M161.2,13.4
		c0,0.1,0,0.1,0,0.2s0,0.1,0.1,0.2l0.2-0.1l-0.1-0.5L161.2,13.4z M161.2,17.2L161.2,17.2l0.3-0.3l-0.1-0.1L161.2,17.2z M161.5,30.8
		c-0.1,0.1-0.2,0.3-0.3,0.4l0.4-0.3L161.5,30.8z M161.3,20.1L161.3,20.1L161.3,20.1v0.2c0.2-0.1,0.3-0.2,0.5-0.3l0.1-0.2
		c-0.1,0.1-0.2,0.2-0.4,0.3H161.3L161.3,20.1z M161.5,14c0,0-0.1,0-0.1,0.1c0,0-0.1,0-0.1,0.1v0.2l0.2-0.2
		C161.6,14.1,161.6,14.1,161.5,14z M161.4,17.5l0.2,0.3c0-0.1,0.1-0.1,0.1-0.2s0.1-0.1,0.2-0.2l-0.1-0.3L161.4,17.5z M161.8,10.3
		c0-0.1,0-0.1,0-0.2s0-0.1,0-0.2s0-0.1,0-0.2s0-0.1,0-0.2l-0.3,0.3c0,0.2-0.1,0.5-0.1,0.7l0.1-0.1C161.6,10.3,161.7,10.3,161.8,10.3
		z M161.9,11.2c0,0,0-0.1,0-0.3l-0.4,0.3c0,0.1,0,0.3,0,0.4s0,0.2,0.1,0.4c0.1,0,0.1,0,0.2-0.1c0,0,0.1,0,0.2-0.1v-0.1v-0.1
		c0-0.1,0-0.1,0-0.2S161.9,11.3,161.9,11.2z M161.9,29.7c-0.1,0-0.1,0.1-0.2,0.1c-0.1,0-0.1,0.1-0.2,0.2l0.1,0.2L161.9,29.7z
		 M161.5,14.7l0.1,0.4l0.2-0.1l-0.1-0.5L161.5,14.7z M162.2,31.3L162.2,31.3C162.1,31.3,162.1,31.3,162.2,31.3l-0.3-0.2l-0.4,0.3
		l0.4,0.1l0.1,0.1C162.1,31.5,162.1,31.4,162.2,31.3L162.2,31.3z M161.9,8.7c0-0.1,0.1-0.1,0.1-0.2s0.1-0.2,0.1-0.3l0,0l0,0L162,8.3
		l0,0c0,0,0,0,0.1,0c0,0,0,0,0.1,0s0,0,0.1,0L162,8.5c-0.1,0.3-0.2,0.5-0.3,0.7l0.3-0.3C161.9,8.8,161.9,8.7,161.9,8.7z M161.6,28.7
		l0.4,0.4l0,0l-0.3-0.6L161.6,28.7z M161.6,18.6L161.6,18.6C161.7,18.7,161.7,18.7,161.6,18.6L161.6,18.6z M162.1,13.4
		c0-0.1-0.1-0.3-0.1-0.4s-0.1-0.3-0.1-0.4l-0.1,0.1l-0.1,0.1l0.1,0.7C161.9,13.4,162,13.4,162.1,13.4z M162.7,18.2
		c0,0-0.1-0.1-0.2-0.2c0,0,0,0.1-0.1,0.1c0,0.1-0.1,0.1-0.2,0.1c0,0,0,0-0.1,0l-0.2,0.2l0.1,0.1c0,0.1-0.1,0.2-0.2,0.2
		c-0.1,0-0.2,0-0.2,0l0.1,0.1c0.1-0.1,0.2-0.2,0.3-0.3c0.1-0.1,0.2-0.2,0.4-0.2L162.7,18.2z M161.7,15.4c0,0.1,0,0.1,0.1,0.2
		c0,0.1,0,0.1,0.1,0.2c0-0.1,0.1-0.1,0.2-0.2c0-0.1-0.1-0.2-0.1-0.3L161.7,15.4z M162,17.9L162,17.9c-0.1,0-0.1,0-0.2,0.1
		s-0.1,0.1-0.1,0.2L162,17.9z M161.8,30.4l0.2,0.3l0.6-0.4l-0.4-0.4L161.8,30.4z M162.2,13.9c0,0.1-0.1,0.1-0.1,0.2
		s-0.1,0.1-0.1,0.1l0.1,0.4c0,0.1,0,0.2,0.1,0.2h0.1h0.1h0.1h0.1c-0.1-0.2-0.2-0.5-0.2-0.8L162.2,13.9L162.2,13.9z M162,16.1
		l0.1,0.3c0.1,0,0.2-0.1,0.3-0.1c0-0.1-0.1-0.1-0.1-0.2c0-0.1-0.1-0.1-0.1-0.2L162,16.1z M162.8,30.5l-0.8,0.1l0.4,0.4l-0.2-0.2
		L162.8,30.5z M162.1,19.4c0.1,0,0.2,0.1,0.2,0.2v0.1c0-0.1,0.1-0.2,0.2-0.3c0.1-0.2,0.3-0.3,0.4-0.5c-0.1,0.1-0.3,0.2-0.4,0.2
		C162.4,19.2,162.3,19.3,162.1,19.4L162.1,19.4z M162.3,15.2L162.3,15.2c0,0.1,0,0.1,0,0.1l0.1-0.1H162.3z M162.6,16.6
		c-0.1,0-0.1,0-0.2,0.1c-0.1,0-0.1,0-0.2,0.1l0.1,0.1L162.6,16.6z M162.4,31.8l0.2-0.2h-0.1C162.5,31.6,162.5,31.7,162.4,31.8
		L162.4,31.8z M163.3,16.2c-0.1-0.1-0.2-0.3-0.3-0.4s-0.2-0.3-0.2-0.4c-0.1,0.1-0.1,0.1-0.2,0.1c-0.1,0-0.1,0.1-0.2,0.1
		c0,0.1,0.1,0.2,0.2,0.3c0.1,0.1,0.1,0.2,0.2,0.3h0.1h0.1h0.1H163.3z M162.8,17.3c0.1,0,0.2-0.1,0.3-0.1c0,0,0-0.1-0.1-0.1
		c0,0,0-0.1-0.1-0.1c0,0-0.1,0.1-0.2,0.2c-0.1,0.1-0.2,0.2-0.2,0.2l0.1,0.2l0.1-0.1C162.7,17.3,162.7,17.3,162.8,17.3z M163.3,29.9
		c-0.1-0.1-0.3-0.2-0.4-0.3c-0.1-0.1-0.2-0.2-0.3-0.3v0.1l0.4,0.8c0.1,0,0.1-0.1,0.2-0.1C163.1,29.9,163.2,29.9,163.3,29.9z
		 M163.9,17.4c0.1-0.1,0.1-0.1,0.2-0.1c0.1,0,0.2,0.1,0.2,0.2l-0.1,0.2c0,0,0.1,0,0.1-0.1c0,0,0.1,0,0.1-0.1l-0.3-0.4c0,0,0,0,0-0.1
		v-0.1l-0.1-0.1c-0.1-0.1-0.2-0.2-0.3-0.3c-0.1-0.1-0.2-0.2-0.3-0.3c0,0.1,0,0.1-0.1,0.2s-0.1,0.1-0.2,0.1c0.1,0.1,0.1,0.2,0.2,0.4
		c0,0,0,0,0.1,0h0.1c0.1,0,0.1,0.1,0.1,0.2c0,0,0,0.1-0.1,0.2c0,0.1-0.1,0.1-0.2,0.1l0,0c0,0.1-0.1,0.2-0.2,0.2H163
		c-0.1,0-0.1-0.1-0.1-0.1l-0.2,0.1l-0.1,0.1l-0.1,0.1l0.1,0.1h0.1h0.1h0.1L163,18c0.2-0.1,0.4-0.2,0.5-0.3c0.1-0.1,0.2-0.1,0.2-0.1
		h0.1C163.9,17.5,163.9,17.5,163.9,17.4z M162.8,31.3c0,0,0.1,0,0.2,0.1l0.2-0.1l-0.1-0.2L162.8,31.3z M163,31.9c0.2,0,0.3,0,0.5,0
		s0.3,0,0.5,0.1c0,0,0,0,0-0.1c-0.3,0-0.5-0.1-0.8-0.2L163,31.9z M163.7,32.3c-0.1,0-0.2,0-0.2,0c-0.1,0-0.2,0-0.2,0
		C163.4,32.3,163.5,32.3,163.7,32.3C163.5,32.3,163.6,32.3,163.7,32.3z M164,30.4c-0.1,0-0.3-0.1-0.4-0.2c0,0.1-0.1,0.3-0.3,0.4
		l0.2,0.3l0.1-0.1l-0.1-0.1v-0.1c0,0,0.1-0.1,0.2-0.1C163.9,30.4,164,30.4,164,30.4c0,0.1,0.1,0.1,0.1,0.1s0,0,0.1,0L164,30.4z
		 M163.4,29.6c0.2,0.1,0.4,0.3,0.5,0.3s0.3,0.1,0.4,0.2l0,0l0,0c-0.2,0-0.3-0.1-0.5-0.2C163.7,29.7,163.6,29.6,163.4,29.6z
		 M164.4,30.8c-0.1,0.1-0.1,0.1-0.2,0.2c-0.1,0.1-0.1,0.1-0.2,0.2l0.1,0.1c0,0,0-0.1,0.1-0.2s0.2-0.2,0.4-0.3L164.4,30.8L164.4,30.8
		z M169.8,23.6c0.2,0.2,0.4,0.3,0.5,0.5c0.2,0.2,0.3,0.4,0.5,0.6l-0.2,0.1l-0.3,0.4l-0.1-0.1l0,0l0,0l-0.1,0.1
		c0,0.1,0.1,0.1,0.1,0.1l0.1,0.1c0,0.1-0.1,0.2-0.2,0.2H170l-0.1-0.1c-0.1,0.2-0.3,0.3-0.4,0.5c-0.1,0.1-0.2,0.2-0.3,0.3
		c-0.1,0.1-0.1,0.1-0.2,0.1c-0.1,0-0.1,0.1-0.2,0.1c0,0.1,0.1,0.1,0.1,0.1c0,0.1-0.1,0.2-0.2,0.2h-0.1l-0.1-0.1
		c-0.1,0.1-0.3,0.1-0.4,0.1l0.1,0.1c0,0.1-0.1,0.2-0.2,0.2c-0.1,0-0.2,0-0.3,0c-0.3,0-0.6-0.1-0.9-0.2s-0.6-0.2-0.8-0.4
		c-0.1,0-0.2,0-0.3-0.1s-0.2-0.1-0.4-0.1c-0.1,0-0.2-0.1-0.3-0.2s-0.2-0.1-0.2-0.2l0,0c-0.1-0.1-0.1-0.1-0.1-0.2s0.1-0.2,0.2-0.2
		l0,0c-0.1-0.1-0.1-0.2-0.2-0.3c-0.1-0.1-0.2-0.2-0.3-0.3c-0.1-0.1-0.1-0.3-0.1-0.4s0-0.2,0.1-0.3c0-0.1,0.1-0.1,0.2-0.1l0,0
		c0-0.1,0-0.2,0-0.2s0-0.2,0-0.3v0l0,0l0,0l0.1-0.1c0-0.4,0.2-0.8,0.4-1.2c0.2-0.4,0.5-0.7,0.8-1l0.1-0.1c0-0.1,0.1-0.1,0.1-0.2
		s0.1-0.1,0.1-0.2l0.1-0.1c0-0.1,0.1-0.1,0.2-0.1l0.1-0.1l-0.1-0.1c0.1-0.1,0.2-0.1,0.3-0.2s0.2-0.1,0.2-0.2
		c0.1,0.1,0.2,0.2,0.3,0.3c0.1,0.1,0.2,0.2,0.3,0.3s0.2,0.2,0.2,0.3c0.1,0.1,0.1,0.1,0.1,0.2v0.1l0.6,0.7c0.1,0,0.2,0.1,0.2,0.2
		l0.3,0.3c0.1,0.1,0.2,0.2,0.3,0.3s0.2,0.2,0.3,0.3s0.2,0.2,0.3,0.3C169.8,23.4,169.8,23.5,169.8,23.6z M164.3,32.1
		C164.4,32.1,164.4,32.1,164.3,32.1c0.1,0,0.1,0,0.1,0l0.1-0.1L164.3,32.1C164.4,32,164.3,32,164.3,32.1z M165.3,31.3
		c-0.1,0-0.2,0-0.2-0.1c-0.1,0-0.1,0-0.2-0.1c-0.1,0.1-0.1,0.2-0.2,0.3L165.3,31.3L165.3,31.3z M164.8,30.2c0.1,0,0.1,0,0.2-0.1
		s0.1,0,0.1,0l-0.2-0.1L164.8,30.2z M166.5,26.3c0.2,0,0.4,0.1,0.6,0.1c0.2,0,0.4,0,0.6,0l0,0c0-0.1,0-0.1,0.1-0.1l-0.1-0.2l0,0
		l-0.1-0.1c-0.1,0-0.2-0.1-0.3-0.2s-0.2-0.3-0.3-0.4l0,0c0,0.1-0.1,0.2-0.2,0.2c0,0-0.1,0-0.2-0.1c-0.1-0.1-0.1-0.2-0.2-0.3
		c-0.1-0.1-0.1-0.2-0.2-0.3s-0.1-0.2-0.1-0.3c-0.2-0.2-0.4-0.4-0.5-0.6s-0.3-0.4-0.4-0.7c-0.2,0.2-0.3,0.3-0.3,0.5
		c-0.1,0.2-0.1,0.4-0.1,0.6c0,0.1,0,0.2,0.1,0.3c0.1,0.1,0.1,0.3,0.2,0.4c0.1,0.1,0.2,0.3,0.3,0.4s0.2,0.2,0.3,0.3
		c0.1,0.1,0.1,0.1,0.2,0.2c0.1,0,0.2,0.1,0.3,0.1s0.2,0.1,0.2,0.1C166.5,26.2,166.5,26.2,166.5,26.3z M165.3,32.4
		c0-0.2,0.1-0.3,0.2-0.5l-0.4,0.1l-0.2,0.1c0.1,0,0.2,0.1,0.2,0.2c0,0,0,0.1-0.1,0.1L165.3,32.4z M167,15.8c0,0.1-0.1,0.1-0.1,0.2
		c0,0-0.1,0.1-0.1,0.2c-0.1-0.1-0.2-0.3-0.3-0.5v-0.1l-0.1-0.1c0-0.1-0.1-0.2-0.2-0.2c-0.1-0.1-0.2-0.2-0.3-0.3
		c-0.1-0.1-0.2-0.2-0.2-0.3c-0.1-0.1-0.1-0.2-0.1-0.3l0,0l0,0c-0.1-0.2-0.2-0.5-0.4-0.8c-0.1-0.3-0.2-0.6-0.2-0.8l0,0
		c0-0.1,0-0.2,0.1-0.2c0-0.1,0-0.1,0-0.2v-0.1c0-0.2-0.1-0.4-0.1-0.5c0-0.3,0-0.5,0.1-0.7s0.2-0.4,0.3-0.6c0.1-0.1,0.2-0.2,0.4-0.4
		c0.2-0.1,0.3-0.3,0.6-0.4s0.4-0.2,0.7-0.3c0.2-0.1,0.5-0.1,0.7-0.1c0.1,0,0.3,0,0.4,0s0.3,0,0.4,0.1c0.1,0,0.2,0.1,0.3,0.1
		c0.1,0.1,0.1,0.1,0.1,0.2s0,0.1-0.1,0.2c0.1,0.1,0.1,0.1,0.2,0.2s0.1,0.2,0.1,0.2c0,0.1,0,0.1-0.1,0.2c0,0.1,0,0.1,0,0.1h0.1
		c0.1,0,0.1,0,0.2,0.1l0,0l0,0l0,0c0,0.1,0,0.1,0,0.2s0,0.1,0,0.2s0,0.2,0,0.4c0,0.1,0,0.2-0.1,0.3l0,0l0,0l0,0c0,0.2,0,0.4-0.1,0.6
		s-0.1,0.4-0.2,0.7c-0.1,0.2-0.2,0.4-0.3,0.6s-0.2,0.4-0.3,0.5l-0.1,0.1c0,0,0,0,0,0.1l0,0c0,0.1-0.1,0.1-0.1,0.1l-0.6,0.6
		c-0.1,0.2-0.3,0.3-0.4,0.5v0.1c-0.1,0-0.1,0.1-0.2,0.2C167.1,15.7,167,15.8,167,15.8l-0.1-0.1L167,15.8z M165.1,30.8
		C165,30.8,165,30.8,165.1,30.8s0.2,0.1,0.3,0.1s0.2,0.1,0.3,0.1l0.2-0.2c-0.1,0-0.2,0-0.4,0S165.2,30.8,165.1,30.8z M165.3,30.5
		c0.2,0,0.3,0,0.5,0s0.3,0,0.5-0.1l0.1-0.1c-0.2,0-0.4,0-0.5,0c-0.2,0-0.3-0.1-0.5-0.1l0,0c0,0,0,0,0,0.1L165.3,30.5z M165.7,11.3
		c0,0.1,0,0.1,0,0.2s0,0.1,0,0.2c0,0,0,0,0.1-0.1h0.1c0-0.2,0.1-0.3,0.2-0.4c0,0,0,0-0.1,0c0,0,0,0-0.1,0
		C165.9,11.3,165.8,11.3,165.7,11.3L165.7,11.3z M167.2,12C167.2,12,167.1,12,167.2,12c-0.1,0-0.1-0.1-0.2-0.1c0,0,0,0-0.1-0.1
		c-0.2,0.1-0.4,0.1-0.6,0.1c-0.2,0-0.4,0-0.6,0c-0.1,0-0.1,0-0.1-0.1c0,0.2,0,0.4,0.1,0.7s0.1,0.5,0.2,0.7l0.6,1.2
		c0.1,0.1,0.1,0.1,0.2,0.2c0.1,0.1,0.1,0.2,0.2,0.2c0-0.1,0.1-0.1,0.2-0.2c0.1-0.1,0.1-0.1,0.2-0.2l0,0v-0.1c0-0.1,0.1-0.1,0.1-0.2
		s0-0.2,0.1-0.4c0-0.1,0.1-0.2,0.1-0.4l-0.1-0.1c0-0.1,0-0.2,0.1-0.2c0-0.1,0-0.3,0-0.4s0-0.2,0-0.3c-0.1-0.1-0.1-0.3-0.1-0.4
		C167.5,12.2,167.4,12.1,167.2,12z M165.6,22.7l0.1,0.2l0.2-0.3h-0.1c0,0-0.1,0-0.1-0.1L165.6,22.7z M166,10.8L166,10.8l-0.1,0.2
		c0,0,0,0,0.1,0s0.1,0,0.2-0.1l0.1-0.1c0,0,0.1-0.1,0.2-0.1c0.1,0,0.2-0.1,0.3-0.1c0-0.1,0.1-0.2,0.1-0.3c0-0.1,0.1-0.2,0.2-0.3
		c-0.2,0-0.3,0.1-0.4,0.2C166.4,10.3,166.2,10.5,166,10.8z M166.3,31.6L166.3,31.6c0.1-0.1,0.2-0.2,0.3-0.3s0.2-0.2,0.3-0.2
		l-0.5,0.2c-0.1,0.1-0.2,0.2-0.3,0.3c-0.1,0.1-0.2,0.2-0.3,0.4l0.3-0.3L166.3,31.6z M166.3,23.4C166.3,23.4,166.3,23.5,166.3,23.4
		c0,0.1,0,0.2,0.1,0.2c0,0,0-0.1,0-0.2l-0.3-0.5l-0.1,0.3l0.1,0.1C166.2,23.3,166.2,23.4,166.3,23.4z M166.1,22L166.1,22
		c0.1,0,0.2,0,0.2,0l0.2-0.3l-0.2-0.3h-0.1c0,0,0,0,0,0.1s0,0,0,0.1c0,0,0.1,0.1,0.1,0.2L166.1,22z M166.5,30.7c0,0-0.1,0.1-0.2,0.1
		c-0.1,0.1-0.2,0.1-0.3,0.2l0.1-0.1c0.1-0.1,0.1-0.1,0.2-0.2C166.5,30.8,166.5,30.8,166.5,30.7z M166.1,29.9c0.1,0,0.1,0,0.2,0
		c0.1,0,0.1,0,0.2,0c0.5,0,1-0.1,1.5-0.2c-0.3,0-0.6,0.1-0.9,0.1C166.7,29.9,166.4,29.9,166.1,29.9z M166.4,32.1
		c0.3-0.1,0.5-0.1,0.8-0.1l0,0c0-0.1,0.1-0.1,0.1-0.2s0.1-0.1,0.1-0.2l-0.2,0.1c-0.1,0.1-0.2,0.1-0.3,0.1s-0.1,0-0.2,0l-0.1,0.1
		C166.6,31.9,166.5,31.9,166.4,32.1C166.5,32,166.4,32,166.4,32.1z M166.7,22c-0.1,0.1-0.1,0.1-0.2,0.2l0.2,0.3l0.1-0.3L166.7,22z
		 M166.5,21.1L166.5,21.1l0.2,0.3c0.1-0.1,0.1-0.1,0.2-0.2l-0.2-0.3L166.5,21.1L166.5,21.1z M166.9,24.4l-0.2-0.4c0,0,0,0-0.1,0
		l0.2,0.2L166.9,24.4z M166.8,23.5l0.1-0.1l-0.1-0.1l-0.1,0.1L166.8,23.5z M166.8,11.3l0.1-0.1h-0.1V11.3z M167.2,21.5
		c-0.1,0-0.1,0.1-0.1,0.1l-0.1,0.1l0.1,0.2L167.2,21.5L167.2,21.5z M167.6,9.8c0.1-0.1,0.1-0.1,0.2-0.1c0.1,0,0.2,0.1,0.2,0.2
		s-0.1,0.2-0.1,0.2L168,10c0,0,0,0,0-0.1c0,0,0,0,0-0.1l0,0l0.1-0.1h0.1V9.6c-0.1,0-0.2-0.1-0.3-0.1c-0.1-0.1-0.2-0.1-0.2-0.1
		c-0.3,0.1-0.5,0.1-0.8,0.3C167.1,9.6,167.3,9.7,167.6,9.8L167.6,9.8z M167.3,22.8l-0.2-0.3l-0.1,0.3l0.2,0.2L167.3,22.8z M167.1,24
		l0.1-0.2v-0.1c0,0-0.1,0.1-0.2,0.1L167.1,24z M167.3,30.6c-0.1,0-0.2,0-0.2,0.1c0,0-0.1,0-0.1,0.1L167.3,30.6z M167.1,10.7h0.1
		l0.3-0.5c0,0-0.1,0-0.1-0.1C167.3,10.2,167.2,10.4,167.1,10.7z M167.5,21.8l-0.2,0.5l0.2,0.3c0.1-0.1,0.1-0.1,0.2-0.2
		c0.1-0.1,0.1-0.1,0.2-0.2c0,0,0-0.1-0.1-0.1s0-0.1-0.1-0.1L167.5,21.8C167.6,21.8,167.6,21.8,167.5,21.8
		C167.6,21.8,167.6,21.8,167.5,21.8L167.5,21.8L167.5,21.8z M167.4,24.4l0.2-0.2l-0.1-0.1L167.4,24.4L167.4,24.4z M167.6,11.8
		L167.6,11.8l0.1,0.1l0,0l0,0l0,0c0,0,0-0.1,0.1-0.1c0,0,0-0.1,0.1-0.1c-0.1-0.1-0.2-0.2-0.3-0.3l-0.1,0.1l0,0l-0.1,0.2L167.6,11.8
		L167.6,11.8z M167.4,23.4L167.4,23.4l0.2-0.3l0,0L167.4,23.4z M167.6,24.8c0,0.1,0.1,0.1,0.1,0.2s0.1,0.1,0.2,0.2l0.2-0.4l-0.2-0.3
		L167.6,24.8z M168.1,30.5l-0.5,0.1c0,0,0.1,0.1,0.1,0.2L168.1,30.5z M167.8,23.4l-0.2,0.3l0.2,0.2l0.2-0.3L167.8,23.4z M167.9,22.6
		C167.9,22.6,167.9,22.7,167.9,22.6c-0.1,0.1-0.1,0.2-0.1,0.2l0,0l0,0L167.9,22.6z M167.8,11c0.1,0,0.1,0.1,0.2,0.1s0.1,0.1,0.1,0.1
		c0-0.1,0.1-0.1,0.1-0.2s0-0.1,0.1-0.2l-0.3-0.3L167.8,11z M167.9,31.6c0.2-0.1,0.4-0.2,0.5-0.3c0.2-0.1,0.3-0.2,0.5-0.4l-0.7,0.3
		L167.9,31.6z M168.1,12.9l0.2-0.3c0-0.2-0.1-0.3-0.1-0.5l-0.2,0.3L168.1,12.9z M168.8,23.2c-0.1-0.1-0.2-0.2-0.2-0.3
		s-0.2-0.2-0.3-0.3c0,0.1-0.1,0.2-0.1,0.3c0,0.1-0.1,0.2-0.2,0.3l0.3,0.3C168.5,23.3,168.7,23.2,168.8,23.2z M168.4,24L168.4,24
		C168.3,24,168.3,24,168.4,24l-0.4,0.2l0.2,0.2c0-0.1,0.1-0.1,0.1-0.2C168.3,24.2,168.4,24.1,168.4,24z M168.3,13.1l-0.2,0.3
		c0,0.1,0,0.1,0,0.2s0,0.1,0,0.2l0.2-0.3l0,0c0,0,0,0,0-0.1l0,0V13.1z M168.4,10.3c0-0.1,0.1-0.2,0.2-0.2c0.1,0,0.2,0.1,0.2,0.2
		s0,0.2,0,0.2s0,0.2-0.1,0.2c0.1,0.1,0.1,0.2,0.2,0.4h0.1h0.1c0-0.2-0.1-0.3-0.1-0.5s-0.1-0.4-0.1-0.5c-0.1,0-0.3-0.1-0.4-0.2
		l-0.3,0.3l0.2,0.2C168.4,10.4,168.4,10.4,168.4,10.3z M168.4,11.6l0.2,0.3c0-0.1,0-0.1,0.1-0.2s0-0.1,0-0.1h-0.1
		c0,0-0.1-0.1-0.1-0.2L168.4,11.6z M168.6,25.6l-0.1-0.1l-0.1,0.2L168.6,25.6z M168.7,26.3c0.1,0,0.2-0.1,0.3-0.2l-0.1-0.2
		c-0.1,0-0.1,0-0.2,0.1c-0.1,0-0.1,0-0.2,0.1C168.6,26.2,168.6,26.2,168.7,26.3z M168.6,23.7L168.6,23.7
		C168.5,23.7,168.6,23.7,168.6,23.7L168.6,23.7z M169.2,24.8c-0.1,0.1-0.1,0.1-0.2,0.2c-0.1,0.1-0.1,0.1-0.2,0.2l0.2,0.3
		c0.1,0,0.2-0.1,0.3-0.2s0.2-0.1,0.3-0.2L169.2,24.8z M169,23.6l-0.2,0.3l0,0l0,0L169,23.6L169,23.6z M168.9,30.4L168.9,30.4
		l0.8-0.3c-0.1,0-0.3,0-0.5,0.1C169,30.2,168.9,30.3,168.9,30.4z M169,11.9V12V11.9L169,11.9z M169.2,29.9l0.4-0.1
		c0.1,0,0.2,0.1,0.2,0.2s0,0.1-0.1,0.2l0.2-0.1l0.5-0.5l0,0l0,0c0,0,0-0.1,0.1-0.1s0.1-0.1,0.1-0.1L171,29c0,0,0.1-0.1,0.2-0.2
		s0.2-0.2,0.4-0.4c0.1-0.1,0.3-0.2,0.4-0.3c0.1-0.1,0.2-0.2,0.2-0.2c-0.2,0.1-0.3,0.2-0.5,0.3l-0.1,0.1c0,0.1-0.1,0.1-0.2,0.2
		c-0.1,0.1-0.2,0.2-0.2,0.3S171,29,171,29c-0.1,0.1-0.1,0.1-0.1,0.2l0,0l-0.1,0.1c-0.1,0-0.1,0-0.1-0.1c-0.1,0.1-0.2,0.2-0.3,0.2
		c-0.1,0.1-0.2,0.1-0.3,0.1L169.2,29.9L169.2,29.9z M169.7,24.7c-0.1-0.1-0.2-0.2-0.2-0.3c0,0,0,0,0,0.1c0,0,0,0-0.1,0.1l0.5,0.4
		h0.1l0,0C169.9,24.8,169.8,24.7,169.7,24.7z M170.6,30L170.6,30L170.6,30L170.6,30z M170.9,29.8l0.1-0.1l0.1-0.1l-0.1-0.2l-0.3,0.3
		l0,0L170.9,29.8z M170.9,20.4l0.1,0.1c0,0,0.1,0.1,0.1,0.2v-0.1C171,20.6,170.9,20.5,170.9,20.4z M171.4,29.9L171.4,29.9
		L171.4,29.9l-0.2,0.1l0.1,0.1C171.3,30.1,171.3,30,171.4,29.9z M171.5,29C171.5,29,171.4,29,171.5,29c-0.1,0-0.1,0.1-0.1,0.1
		l0.1,0.2l0.1-0.2L171.5,29L171.5,29z M171.9,28.7c-0.1,0-0.1,0.1-0.1,0.1l0,0L171.9,28.7z M172.1,29.8c-0.1,0.1-0.1,0.1-0.1,0.2
		s-0.1,0.2-0.1,0.2l0.1,0.2c0.1-0.2,0.2-0.3,0.3-0.5L172.1,29.8z M171.9,9.2c0,0.1,0,0.2,0.1,0.2c0,0.1,0,0.2,0,0.2V9.5L171.9,9.2z
		 M172.1,30.8C172.1,30.7,172.1,30.7,172.1,30.8L172.1,30.8L172.1,30.8z M172.2,10.4C172.2,10.4,172.1,10.4,172.2,10.4
		c0,0.1,0,0.2,0,0.4c0,0.1,0,0.3,0,0.4c0-0.2,0.1-0.3,0.1-0.5C172.2,10.6,172.2,10.5,172.2,10.4c0,0,0-0.1,0-0.2V10.4z M172.2,29.3
		l0.2-0.1c0,0,0,0-0.1-0.1c0,0,0,0-0.1-0.1c0,0,0,0.1-0.1,0.1C172.2,29.2,172.2,29.2,172.2,29.3L172.2,29.3z M172.4,27.9L172.4,27.9
		L172.4,27.9L172.4,27.9z M172.7,29.4c-0.1,0-0.2,0.1-0.3,0.1l0.1,0.2l0.3-0.2L172.7,29.4z M172.9,28.3c-0.1,0.1-0.2,0.2-0.3,0.3
		l-0.2,0.2l0.3,0.3c0.1-0.1,0.2-0.1,0.2-0.2c0.1-0.1,0.1-0.1,0.2-0.2L172.9,28.3z M172.7,22.3h0.1c-0.1,0-0.1,0-0.1-0.1V22.3
		L172.7,22.3z M173,21.6l-0.1,0.2v0.1c0,0,0,0.1,0.1,0.1h0.1h0.1l0.3-0.5h-0.1h-0.1h-0.1C173.1,21.6,173.1,21.6,173,21.6L173,21.6z
		 M173.3,29.4h0.1l0.1-0.1c0,0,0.1-0.1,0.2-0.1c-0.1,0-0.1-0.1-0.2-0.1c-0.1,0-0.1-0.1-0.2-0.2c0,0.1-0.1,0.2-0.2,0.2
		c-0.1,0.1-0.1,0.1-0.2,0.2v0.1H173.3z"/>
</g>
<g class="st0">
	<path class="st1" d="M179.4,29.8c0.9-21.5,0.9-22.6,1.4-22.9c-0.1,0,1-0.1,1.7-0.1c1.2,0,3,0.2,3.2,1l2.3,8.1
		c2.2-9.1,2.3-9.1,3.5-9.1h0.3l2.4,0.2c0.6,0.1,0.9,1.5,0.9,1.9l1.5,20.2v1c0,0.2-0.4,0.4-0.6,0.4h-2.7c-0.4,0-0.6-0.5-0.6-0.9
		c-0.2-4.2-0.1-1.1-0.9-15.4c-2,7-3,8.7-3.7,8.7c-0.5,0-1,0-1.1-0.2c-1.1-0.8-0.5-1.4-3.3-9c-0.1,0.8-0.1,3.6-0.1,6.7
		c0,4.9,0,10.5-0.7,10.5h-3c-0.4,0-0.4-0.6-0.4-1C179.4,30.1,179.4,29.8,179.4,29.8z"/>
	<path class="st1" d="M198.2,16.7c0-4.7,0.2-10.2,5.8-10.2c2.5,0,5.3,1.6,5.5,4.6c0.1,1.9,0.1,3.7,0.1,5.6c0,2.4-0.1,4.8-0.1,7.3
		c0,0.1,0,0.1,0,0.1c-0.3,4.4-0.6,7.5-5.3,7.5c-1.8,0-4.6-0.3-5.2-2.7C198.3,26.4,198.2,20.9,198.2,16.7z M204.1,28
		c0.6,0,1.3-0.4,1.4-1.3c0.2-3.8,0.3-9,0.3-12.7v-1.9c-0.1-1.1-0.4-1.6-1.8-1.6c-1.7,0-1.7,1.1-1.7,2.3v0.4c0,7.5,0,10.7,0.1,13.6
		C202.5,27.5,203.3,28,204.1,28z"/>
	<path class="st1" d="M212.4,7.3c0-0.4,0.1-0.9,0.6-1.1c0.9-0.1,1.7-0.1,2.6-0.1h3.5c2.9,0.3,3.6,2.7,3.8,5.2c0,4.2-0.1,5.7-0.1,6
		c-0.5,2.1-1.8,2.3-2.3,2.9v0.1c1,2,2.8,6.3,2.8,9.6c0,0.6-2.2,0.7-2.6,0.8c-0.6,0-0.7-0.9-0.8-1.4c0-1.5-1.6-8.1-3.3-8.1
		c-0.3,0-0.7,0-0.8,0.3v4c0,1.4,0,2.8,0,4.3c0,0.4,0,0.8-0.5,0.8h-2.6c-0.7,0-0.7-1-0.7-1.5L212.4,7.3z M216,17.5
		c0,0.5,0.5,0.6,0.9,0.6c1,0,1.7-0.1,1.9-1.2c0.1-1.6,0.1-2.5,0.1-4v-1.8c-0.2-0.8-0.7-1.2-1.5-1.2s-1.3,0.3-1.4,1.1V17.5z"/>
	<path class="st1" d="M226.4,6.6h3c0.6,0,3.6,0,4.2,0.1c0.3,0.1,0.4,0.2,0.4,0.4c0,0.9,0,1.7,0,2.6c0,0.4-0.1,0.7-0.7,0.7h-4
		l-0.3,0.3l0.2,6.1l3.1,0.1c0.4,0,0.6,0.8,0.6,1.6v0.3l-0.1,0.9c0,0.3-0.1,0.8-0.5,0.8h-2.8c0,0-0.1,0.1-0.2,0.1l-0.1,0.1l0.2,5.7
		c0.1,0.4,0.3,0.7,0.7,0.7h4c0.6,0,0.7,0.5,0.7,1l-0.2,2.1c0,0.3-0.3,0.5-0.6,0.6l-7.8,0.3c-0.4,0-0.9-0.5-0.9-9.3
		c0-2.4,0-4.7,0-7.2c0-2.4,0-4.9,0.1-7.5C225.6,6.7,226,6.6,226.4,6.6z"/>
</g>
<g class="st0">
	<path class="st1" d="M238.8,18.6c0-4.9,0.1-14.8,7.5-14.8c3,0,4.8,1.6,6,4.3v0.4c0,0.3,0,0.6-0.3,0.7l-3.3,1.6
		c-0.6-1.9-1.5-2.7-2.4-2.7c-2.2,0-3.2,4.8-3.2,9.5c0,4.8,1,9.5,3,9.5c3,0,3.1-2.2,3.1-4.8c0-0.5-0.1-1.4-0.5-1.4h-2.2
		c-0.2,0-0.5-0.5-0.5-0.7v-2.8c0-0.2,0.2-0.6,0.5-0.6c0.5,0,3.5-0.1,4.1-0.1h0.4c0.7,0,1.3,0,1.5,0.8c0.3,1.5,0.3,3,0.3,4.5
		c0,2.2-0.2,3.6-1,5.7c-0.9,2.5-3.6,3.3-5.9,3.3c-6.5,0-7.2-7.3-7.2-12.2L238.8,18.6L238.8,18.6z"/>
	<path class="st1" d="M255.8,4.7c0-0.5,0.1-1,0.6-1.2c1-0.1,1.9-0.1,2.8-0.1h3.9c3.2,0.3,3.9,3,4.2,5.7c0,4.7-0.1,6.3-0.2,6.7
		c-0.5,2.3-2,2.5-2.6,3.2c0,0,0,0.1,0,0.2c1.1,2.3,3.1,6.9,3.1,10.6c0,0.7-2.4,0.8-2.9,0.9c-0.7,0-0.7-1-0.9-1.5
		c0-1.6-1.8-8.9-3.6-8.9c-0.3,0-0.8,0-0.9,0.4v4.5c0,1.6,0,3.2,0,4.8c0,0.5,0,0.9-0.6,0.9h-2.9c-0.7,0-0.7-1.1-0.7-1.6L255.8,4.7z
		 M259.9,16c0,0.5,0.5,0.7,1,0.7c1.1,0,1.8-0.2,2.1-1.3c0.2-1.7,0.2-2.8,0.2-4.4V9c-0.2-0.9-0.8-1.3-1.7-1.3S260.1,8,260,8.9
		L259.9,16z"/>
	<path class="st1" d="M271.3,3.9h3.3c0.7,0,4,0,4.7,0.1c0.3,0.1,0.4,0.2,0.5,0.5c0,0.9,0,1.8,0,2.9c0,0.4-0.1,0.8-0.8,0.8h-4.4
		l-0.4,0.4l0.2,6.8l3.4,0.1c0.5,0,0.6,0.9,0.6,1.7v0.3l-0.1,1c0,0.3-0.1,0.9-0.6,0.9h-3.1c0,0-0.1,0.1-0.2,0.1l-0.1,0.1l0.2,6.3
		c0.1,0.5,0.3,0.8,0.8,0.8h4.4c0.7,0,0.8,0.5,0.8,1.1l-0.2,2.3c0,0.3-0.3,0.6-0.6,0.7l-8.7,0.3c-0.5,0-0.9-0.6-0.9-10.3
		c0-2.6,0-5.2,0-8s0-5.5,0.1-8.3C270.5,4,270.9,3.9,271.3,3.9z"/>
	<path class="st1" d="M283.6,3.9h3.3c0.7,0,4,0,4.7,0.1c0.3,0.1,0.4,0.2,0.5,0.5c0,0.9,0,1.8,0,2.9c0,0.4-0.1,0.8-0.8,0.8h-4.4
		l-0.4,0.4l0.2,6.8l3.4,0.1c0.5,0,0.6,0.9,0.6,1.7v0.3l-0.1,1c0,0.3-0.1,0.9-0.6,0.9h-3.1c0,0-0.1,0.1-0.2,0.1l-0.1,0.1l0.2,6.3
		c0.1,0.5,0.3,0.8,0.8,0.8h4.4c0.7,0,0.8,0.5,0.8,1.1l-0.2,2.3c0,0.3-0.3,0.6-0.6,0.7l-8.7,0.3c-0.5,0-0.9-0.6-0.9-10.3
		c0-2.6,0-5.2,0-8s0-5.5,0.1-8.3C282.8,4,283.2,3.9,283.6,3.9z"/>
	<path class="st1" d="M299.1,11.5c-0.1,0-0.1,0.8-0.1,2.2c0,3.5,0.2,10.6,0.2,17.1c0,0.9-0.7,1-1.4,1c-0.2,0-0.5,0-0.7,0
		c-0.2,0-0.5,0-0.8,0c-0.6,0-1.2-0.1-1.3-0.6V19.4c0-3.4-0.1-6.8-0.1-10.2c0-0.6,0-3.4,0-4c0-0.3,0.2-0.6,0.7-0.6h4.8
		c0.3,0,0.7,0.1,0.7,0.5l5.7,18.9l-0.9-18.8c0.1-0.3,0.4-0.5,0.7-0.5h2.9c0.2,0,0.5,0.1,0.6,0.3v0.2c0,1.4,0.2,5.7,0.2,8.5
		c0,1.3,0.2,8.4,0.2,13.2c0,2.6-0.1,4.6-0.2,4.6h-4.2c-0.4,0-0.7-0.3-0.8-0.6L299.1,11.5z"/>
</g>
</svg>
